<svg version="1" xmlns="http://www.w3.org/2000/svg" width="465.333" height="465.333" viewBox="0 0 349.000000 349.000000"><path d="M167.3 1.5c-4.4 3.1-7.3 18.6-5.3 28.1 1.5 7.2 3.4 11.5 7.9 17.9 3.1 4.2 3.6 5.7 3.6 10.5 0 3.7-.7 6.6-2.1 9-1.9 3.4-2.2 3.5-8.6 3.8l-6.5.3-1.7-5.3c-3.7-11.2-7.4-14.8-23.9-22.8-12.3-6-19.5-11.9-23.9-19.7-3.2-5.7-5.9-6.8-7.8-3.4-1.6 3.1-1.2 11.3.9 17.4 4 11.6 9 17.7 20.4 24.6 6.8 4.2 8.9 8.7 7.8 17.1 0 .5-2.1 1.9-4.6 3.1-2.5 1.2-4.8 2.5-5.1 3-1.1 1.8-3.7.8-7.3-3-6.1-6.3-9.6-7.4-25.6-7.7-18.6-.4-22.2-1-28.5-4.7-10.3-6.2-10.2-6.2-11.7-4.1-3.5 4.8 3.7 17.2 14.4 24.5 5.7 3.9 10.9 5.7 18.9 6.4 6.4.5 10.3 2.2 13.4 6 1 1.3.8 2-1.4 4.8-1.5 1.7-4.1 5.1-5.9 7.5-2.7 3.7-3.6 4.2-5.7 3.7-8.5-2.1-14.6-.8-29 6.5-14.9 7.5-21.9 8.8-30.8 5.9-3-1-3.7-.9-4.8.5-.9 1.3-1 2.5-.2 4.7 2 5.8 11.4 11.3 21.8 12.7 7.8 1.1 11.5.7 19.5-2.3 6.8-2.6 10.1-3 12.3-1.7 1 .7.9 2.1-.3 7.3-.8 3.5-1.7 8.1-2 10.1-.5 3.1-1.1 3.8-4.2 4.9-4.7 1.5-10.2 6.6-17.3 15.9-10.2 13.4-17.2 19.1-24.9 20.5-7.2 1.3-8.8 3.6-4.9 7.2 3.2 3 10.2 4.6 16.4 3.8 6.9-.8 20.1-7.3 23.9-11.6 4.1-4.6 8.4-7.9 10.5-7.9 1.2 0 2.5 2.5 4.8 9.6l3.2 9.6-3.6 4c-4.8 5.3-6.7 9.9-10.5 24.9-1.7 6.8-4 14.1-5.1 16.2-2.3 4.7-8.3 11.4-10.8 12.2-2.8.9-3.5 4.3-1.3 6.7 1.5 1.7 2.6 1.9 7 1.5 11.5-1.2 25.8-15.2 29.3-28.7.8-2.8 2.6-5.9 5.1-8.3l3.9-3.9 5.7 5.2c8.8 8 8.7 7.8 5.2 14.4-3.1 5.7-3.9 12.3-2.4 19.6.3 1.4.7 4.3 1 6.5.3 2.2 1 6.5 1.5 9.5 1.5 8.4.4 18.4-2.5 24.7-3.2 6.7-3 8.7 1.1 9.1 2.6.3 3.9-.6 9.4-6.5 9.1-9.7 14.1-22.8 11.8-30.8-1.1-4.1-.7-11.4 1-14.7.7-1.5 2.6-3.8 4.3-5.2l3-2.5 5.2 2c2.9 1.2 7.9 2.9 11.2 3.9 4.8 1.4 5.9 2.1 5.7 3.6-.2 1.1-.4 5-.5 8.9-.2 8.2 1.4 11.9 9.1 21.2 15 18.1 17.2 23.1 18.1 40 .1 2.1 3.6 1.5 5.9-.9 4.6-5 6.6-15.1 5-25.7-1.1-7.1-2.9-11.7-7.9-20-3.6-5.8-4-7.2-3.6-11.2.5-4.4 2.8-10.2 4.4-11.2.5-.3 3.6-.7 7-1.1 6.8-.7 6.4-1 7.8 6.4 1.7 8.8 6.3 13.1 22.5 21.5 15 7.8 21 12.7 24.4 20 1.5 2.9 3 5.6 3.5 5.9 3.4 2.2 6.7-5.4 5.6-13.1-1.7-12.4-8.4-22.6-19.7-29.9-8.1-5.2-10-7.9-10.2-14.2l-.1-4.7 6.8-3.5 6.8-3.5 2 2.8c2.6 3.4 9.3 7.4 13.9 8.2 1.9.3 10 .7 18 .9 16.3.4 20.3 1.5 28.1 7.2 2.8 2 5.6 3.3 6.4 3 2.2-.8 1.8-6.7-.7-11.4-6.4-11.3-16.4-17.8-31.7-20.3-6.5-1-12.6-4.3-13.8-7.5-.3-.8 1.2-3.4 3.3-5.8 2.2-2.4 4.7-5.6 5.7-7 1.2-1.7 2.5-2.5 3.5-2.2 7.9 2.5 17.3.3 29.9-6.9 12.2-7 21.5-9 30.2-6.5 4.2 1.2 6 0 5.3-3.5-.9-4.9-9.7-10.4-19.7-12.5-8.4-1.8-13.6-1.4-20.7 1.5-6.3 2.6-12.2 3.2-13.3 1.5-.3-.5-.1-2.7.4-4.7.6-2.1 1.3-6.3 1.6-9.3.9-7.6.8-7.5 5.3-8.8 4.5-1.4 8.2-4.8 19.7-18.5 9.7-11.4 15.7-16.2 22.7-17.7 5.7-1.2 6.8-2.2 6.1-5.2-1.3-4.7-13.1-7-23.4-4.4-8.3 2.2-13.4 5.2-19.9 12-2.9 3-6.6 6-8.1 6.5-2.8.9-2.9.8-3.9-3.2-.6-2.3-2-7-3.2-10.4l-2.2-6.3 4.1-3.7c4.6-4.4 7.1-10.3 10.8-25.9 3.4-14.4 8.6-23.8 15.1-27.2 2.7-1.4 3.6-4.8 1.8-6.3-2.9-2.4-8.8-1.9-15.2 1.3-10.7 5.3-17.4 13.4-21.6 26.5-1.7 5.2-6.3 10.3-9.1 10.3-.8 0-4.2-2.8-7.5-6.2l-6.1-6.3 2.7-4.9c3.8-6.9 4.2-15.9 1.5-29.9-1.2-5.9-2.1-13.4-2.1-16.6 0-5.8 2.1-13.9 4.7-17.6 5.2-7.6-4.9-8.2-12.6-.6-7.6 7.4-11.2 18.2-11.1 33.1 0 11.7-1.4 16-6.2 18.8-2.6 1.5-3.1 1.5-7.5-.2-2.7-1-6.6-2.3-8.8-2.9-8.7-2.1-8.6-2-7.9-8.4.3-3.2.7-6 .9-6.4.7-1.1-2.3-9.7-4.8-13.5-1.3-2.2-5.5-7.7-9.2-12.4-9.2-11.6-12.6-18.6-12.9-26.4-.4-8.8-1.7-10.3-6.3-7.1zm2.9 90.7c2.5 2.1 2.8 4.5 1 6.8-2.3 2.8-5.7 1.8-4.1-1.2.9-1.7.8-1.9-1.3-1.6-2.9.4-3.6 4.2-1.3 6.8 2.6 2.9 7.7 4.3 10.9 3 1.5-.5 5-3.2 7.9-5.9 6.4-5.9 8.5-7.1 13.2-7.1 2.6 0 4.3.7 6 2.6 2.9 3.2 3.1 4.1.8 6.6-2.7 3-6.9 1.5-4.3-1.7 1.5-1.9-.4-2.9-3-1.5-2.7 1.4-2.6 5.1.3 8.2 4.6 5.2 8.4 5.5 17.1 1.1 8.3-4.2 16.2-3 20 3 .8 1.3.7 2.4-.4 4.5-1.7 3-3.7 3.7-6 2.2-1.3-.9-1.3-1.2.4-2.5 2-1.5 1.4-3.5-1.3-3.5-5.1 0-5.6 8.7-.6 13.6 1.3 1.4 4.9 2.2 12.8 2.9 6.9.6 8.6 1.4 12.1 5.6 1.8 2.2 2.5 3.9 2.2 5.8-.2 1.4-.5 2.9-.5 3.4-.1.4-1.3 1.2-2.8 1.8-2 .7-3 .6-4.1-.5-1.7-1.7-.8-3.8 1.3-2.9 1.8.6 1.9-.1.5-2.8-2.7-5-8-.3-8 7.1 0 5.2.8 6.1 9.6 12 6 3.9 8.4 7.4 8.4 12.2 0 6.1-5.4 9.4-9.4 5.8-1.6-1.5.1-3.9 2.3-3.3 1.6.4 2.1.1 2.1-1.5 0-5-7.9-3.1-10.5 2.5-2 4.2-1.4 7.4 2.4 12.8 5.9 8.3 6.8 10.7 5.8 15.3-1 5-4.3 7.8-8.2 6.8-1.8-.5-2.5-1.3-2.5-3.1 0-1.6.6-2.5 1.6-2.5.8 0 1.2.4.9 1-.3.5 0 1 .8 1 2.4 0 3-3.2.9-5.2-2.3-2.3-5.5-1.7-9.7 1.6-2.5 2-2.9 3-2.8 7 .1 2.6.7 6.3 1.4 8.3 1 3.3 1.3 6.1 1 11.6-.1 2.7-5.6 7.7-8.4 7.7-3.8 0-6.9-5.2-4.4-7.6.8-.8 3.7.8 3.1 1.7-.3.5-.1.9.5.9s1.5-.8 2-1.9c2.5-4.6-4.3-7-10.7-3.7-3.2 1.7-4 3-4.8 8.5-1.5 10.2-4.8 16-10.2 17.8-5.6 1.9-10.9-1.8-9.1-6.5 1.1-2.9 5.3-3.2 4.4-.2-.7 2.3 1.8 2.9 3.2.7 2.4-3.9-1.7-7.7-8.5-7.7-4.2 0-4.8.4-10.1 6-6 6.5-10.2 8.4-15.9 7.4-4.5-.9-7.5-4.7-6-7.9 1.2-2.7 3.1-3.7 5.3-2.9 2 .8 1.9 2.3-.2 3.1-1.3.5-1.2.8.8 1.5 1.8.7 2.7.5 3.6-.8 1.7-2.3.8-5.2-2.7-8.7-3.4-3.6-7.6-3.8-15.1-.6-6.9 3-11.5 3-15.8 0-5.4-3.9-6.1-8.9-1.4-11 1.8-.8 2.9-.9 3.9-.1 1.4 1.2.8 4.4-.7 3.4-1.4-.8-1.1 1.2.4 2.4 1 .9 1.9.7 3.5-.4 2.6-1.8 2.8-4.1.7-9-1.7-4-5.3-5.9-13.5-6.8-6.6-.8-9.8-2.9-12.4-8-2.2-4.4-1.5-8 1.9-10.2 1.8-1.2 2.4-1.1 4.3.1 2.3 1.7 1.9 5-.5 4.1-1-.4-1.3 0-1.1 1.6.4 2.6 3.6 3.3 6 1.1 2.3-2 4.1-7.7 3.3-10.3-.3-1-3.1-4.5-6.1-7.7-5.6-6-7.1-9.7-5.9-15.1 1.4-6.5 7.8-9.4 10.9-5 1.4 2 1.4 2.4.1 3.8-1.4 1.3-1.7 1.3-2.5 0-1.3-2.1-3.1 0-2.4 2.8.8 2.8 4.7 2.9 9.2.2 3.7-2.3 3.6-1.6 3.6-14.5.1-9.2.3-10.3 2.6-13.2 1.4-1.7 3.5-3.6 4.8-4.2 4.7-2.3 10.1 1.4 8.7 5.9-.9 2.7-4.9 2.8-4.2.1.4-1.5.1-1.8-1.2-1.3-2.5.9-3 2.3-1.9 4.8 1.8 3.9 10 4.7 13.6 1.4 1.2-1.1 3.7-4.5 5.6-7.5 4-6.2 7.1-8.5 11.8-8.9 8.6-.8 13.7 8.6 5.8 10.7-2 .5-3.6-1.8-2-2.8 1.7-1 1.1-2.5-.9-2.5-5.4 0-5 6.8.7 10.6 3.8 2.6 6.6 2.5 16.7-.4 8.4-2.4 19 6.3 15.5 12.9-1.3 2.4-4.7 3.4-6.5 1.9-2-1.6-1.9-4 .1-4 2.4 0 1.1-2.5-1.5-2.8-3.1-.5-4.1.7-4.7 5.9-.7 5.6 1.4 8.6 8.8 12.3 7.6 3.9 10.6 8.9 9.9 16.8-.2 2.5-3.7 5.8-6.1 5.8-2.6 0-5.7-4.7-4.2-6.2.8-.8 1.5-.8 2.5.1 2.1 1.7 3.3-1.8 1.3-3.7-1.9-2-5.6-.9-9 2.5-2.7 2.7-2.8 3-2.2 10.7.5 6.8.3 8.6-1.4 12.2-4.3 8.8-16 10.1-16 1.9 0-1.9.2-3.5.4-3.5s1.1-.3 2-.6c1.2-.5 1.6 0 1.6 1.9 0 2 .4 2.4 1.9 2 2-.5 3.1-2.9 2.3-5.1-.6-1.8-6.3-4.5-9.4-4.4-1.6 0-4.6 1.6-7.1 3.6-4.7 3.8-8.5 5.6-12.3 5.6-3.1 0-10-6.2-10.7-9.7-1.1-6 4-10.1 7.8-6.2 1.7 1.7 1.8 2.1.5 2.9-.8.5-1.8.6-2.2.4-.4-.3-.8.1-.8.8 0 .7.9 1.9 1.9 2.5 2.7 1.7 4.8-.2 6.2-5.9 1.2-4.5 1.2-4.7-2.4-10-4.7-6.8-5.8-10.4-4.3-14.8 2.2-6.8 12.2-10.4 16.6-6 1.6 1.6 1.8 2.5 1 4-1.4 2.6-2.8 3.3-4.8 2.5-1.4-.5-1.4-.7-.2-1.5s1.2-1-.3-1.6c-2.1-.8-4.7 1.2-4.7 3.5 0 1 1.8 2.7 4 4 2.2 1.2 4 2.5 4 2.9 0 .3-1.1 1.8-2.5 3.2-4.8 5-3.5 14.9 2.2 17.1 6.2 2.3 18.3-1.6 22.7-7.4 7.2-9.6 5.2-25.1-4.6-34.9-5.2-5.2-10.2-7.8-17.4-8.7-12-1.7-22.5 1.9-30.9 10.3-18.7 19-14.3 47.8 9.8 63.5 29.2 19 61.4 8.6 78.5-25.4 15.1-30.1 8.8-64.6-14.8-80.4-9.5-6.3-17.5-8.8-34-10.7-12.8-1.5-25.8.5-38.5 5.9-5 2.1-15 8.1-17.1 10.2-.6.6-3 2.7-5.3 4.6-2.3 1.8-7.2 7.3-10.9 12.1-3.6 4.8-6.8 8.5-7.1 8.2-.3-.3-.6-2.2-.6-4.2-.1-2-.5-6.2-1-9.2-.5-3-.9-6.1-.8-6.8 0-.6.1-2.1.2-3.3.1-2.8 6.3-8.9 9-8.9 1.1 0 2.8 1.2 3.7 2.6 1.6 2.3 1.6 2.7.2 4.1-1.6 1.6-4.3.9-3.3-.8.4-.5.2-.9-.4-.9-.6 0-1.5.8-2 1.9-2.6 4.9 6.4 7.4 11.9 3.3 3-2.3 3.8-4.8 3.9-12.7.1-7.5 2.5-12.2 7.5-14.8 3-1.6 4.2-1.8 6.2-.8 2.9 1.3 4.1 3.8 2.7 5.9-1.5 2.4-3 2.5-3.6.2-.7-2.7-3.7-1.5-3.7 1.5 0 2.9 1.8 4.3 6.2 4.9 5.4.6 8.9-2 13-10 2.1-4.2 4.8-7.8 6.8-9.2 3.6-2.4 8.8-2.9 11.2-1zm-67.8 66.4c2.2 2.2 2 7-.4 9.4-1.1 1.1-2.4 2-2.8 2-2.1 0-4.3-2.8-4.4-5.6-.2-6.2 4-9.5 7.6-5.8zm-3.5 18.6c.7 1.7.4 2.8-1 4.3-1.8 1.8-2 1.8-3.6.3-1.4-1.4-1.5-2.2-.5-4.3 1.4-3.1 4-3.2 5.1-.3zm-2.5 13.4c2 .8 2.1 2.8.2 4.3-1.7 1.4-4.1-1.1-3.2-3.4.6-1.7.8-1.7 3-.9z"/></svg>