<?xml version="1.0" encoding="utf-8"?>
<!-- Generator: Adobe Illustrator 16.0.2, SVG Export Plug-In . SVG Version: 6.00 Build 0)  -->
<!DOCTYPE svg PUBLIC "-//W3C//DTD SVG 1.1//EN" "http://www.w3.org/Graphics/SVG/1.1/DTD/svg11.dtd">
<svg version="1.1" id="Слой_1" xmlns="http://www.w3.org/2000/svg" xmlns:xlink="http://www.w3.org/1999/xlink" x="0px" y="0px"
	 width="336px" height="224.02px" viewBox="0 0 336 224.02" enable-background="new 0 0 336 224.02" xml:space="preserve">
<g opacity="0.2">
	<path opacity="0.7" fill="#D37970" d="M193.071,97.72c0,43.632-25.063,79.001-25.063,79.001s-25.063-35.369-25.063-79.001
		s25.063-79.002,25.063-79.002S193.071,54.088,193.071,97.72z"/>
	<path opacity="0.7" fill="#D37970" d="M150.211,95.769c21.816,37.786,17.796,80.948,17.796,80.948s-39.39-18.1-61.206-55.886
		C84.986,83.045,89.006,39.882,89.006,39.882S128.396,57.982,150.211,95.769z"/>
	<path opacity="0.7" fill="#D37970" d="M112.117,115.508c37.786,21.815,55.887,61.206,55.887,61.206s-43.163,4.021-80.949-17.796
		C49.27,137.103,31.169,97.712,31.169,97.712S74.332,93.692,112.117,115.508z"/>
	<path opacity="0.7" fill="#D37970" d="M88.998,151.65c43.632,0,79.002,25.063,79.002,25.063s-35.37,25.063-79.002,25.063
		S9.997,176.713,9.997,176.713S45.366,151.65,88.998,151.65z"/>
	<path opacity="0.7" fill="#D37970" d="M247,201.792c-43.631,0-79-25.063-79-25.063s35.37-25.063,79.001-25.062
		c43.631-0.001,79.002,25.062,79.002,25.062S290.633,201.792,247,201.792z"/>
	<path opacity="0.7" fill="#D37970" d="M248.952,158.933c-37.786,21.816-80.948,17.796-80.948,17.796s18.101-39.39,55.886-61.205
		c37.786-21.815,80.949-17.797,80.949-17.797S286.738,137.117,248.952,158.933z"/>
	<path opacity="0.7" fill="#D37970" d="M229.212,120.84c-21.815,37.785-61.205,55.886-61.205,55.886s-4.02-43.163,17.797-80.948
		c21.814-37.786,61.205-55.887,61.205-55.887S251.028,83.054,229.212,120.84z"/>
	<path opacity="0.7" fill="#D37970" d="M186.106,119.726c0,31.513-18.101,57.06-18.101,57.06s-18.102-25.547-18.102-57.06
		c0-31.512,18.102-57.058,18.102-57.058S186.106,88.214,186.106,119.726z"/>
	<path opacity="0.7" fill="#D37970" d="M155.152,118.317c15.756,27.289,12.853,58.463,12.853,58.463s-28.449-13.071-44.205-40.362
		c-15.756-27.29-12.853-58.464-12.853-58.464S139.396,91.026,155.152,118.317z"/>
	<path opacity="0.7" fill="#D37970" d="M127.64,132.574c27.29,15.756,40.363,44.204,40.363,44.204s-31.175,2.904-58.465-12.853
		s-40.362-44.205-40.362-44.205S100.35,116.817,127.64,132.574z"/>
	<path opacity="0.7" fill="#D37970" d="M110.941,158.677c31.513,0,57.059,18.101,57.059,18.101s-25.546,18.103-57.059,18.102
		c-31.513,0-57.058-18.102-57.058-18.102S79.429,158.677,110.941,158.677z"/>
	<path opacity="0.7" fill="#D37970" d="M225.058,194.892c-31.513,0-57.058-18.102-57.058-18.102s25.546-18.101,57.058-18.101
		s57.059,18.101,57.059,18.101S256.569,194.892,225.058,194.892z"/>
	<path opacity="0.7" fill="#D37970" d="M226.467,163.937c-27.291,15.757-58.464,12.853-58.464,12.853s13.073-28.448,40.362-44.204
		c27.291-15.757,58.465-12.854,58.465-12.854S253.758,148.181,226.467,163.937z"/>
	<path opacity="0.7" fill="#D37970" d="M212.21,136.425c-15.756,27.29-44.205,40.362-44.205,40.362s-2.902-31.174,12.854-58.464
		s44.205-40.363,44.205-40.363S227.966,109.134,212.21,136.425z"/>
</g>
</svg>
