<svg xmlns="http://www.w3.org/2000/svg" width="336" height="224.02"><g opacity=".2" fill="#D37970"><path opacity=".7" d="M193.071 97.72c0 43.632-25.063 79.001-25.063 79.001s-25.063-35.369-25.063-79.001 25.063-79.002 25.063-79.002 25.063 35.37 25.063 79.002z"/><path opacity=".7" d="M150.211 95.769c21.816 37.786 17.796 80.948 17.796 80.948s-39.39-18.1-61.206-55.886C84.986 83.045 89.006 39.882 89.006 39.882s39.39 18.1 61.205 55.887z"/><path opacity=".7" d="M112.117 115.508c37.786 21.815 55.887 61.206 55.887 61.206s-43.163 4.021-80.949-17.796C49.27 137.103 31.169 97.712 31.169 97.712s43.163-4.02 80.948 17.796z"/><path opacity=".7" d="M88.998 151.65c43.632 0 79.002 25.063 79.002 25.063s-35.37 25.063-79.002 25.063-79.001-25.063-79.001-25.063 35.369-25.063 79.001-25.063zM247 201.792c-43.631 0-79-25.063-79-25.063s35.37-25.063 79.001-25.062c43.631-.001 79.002 25.062 79.002 25.062s-35.37 25.063-79.003 25.063z"/><path opacity=".7" d="M248.952 158.933c-37.786 21.816-80.948 17.796-80.948 17.796s18.101-39.39 55.886-61.205c37.786-21.815 80.949-17.797 80.949-17.797s-18.101 39.39-55.887 61.206z"/><path opacity=".7" d="M229.212 120.84c-21.815 37.785-61.205 55.886-61.205 55.886s-4.02-43.163 17.797-80.948c21.814-37.786 61.205-55.887 61.205-55.887s4.019 43.163-17.797 80.949z"/><path opacity=".7" d="M186.106 119.726c0 31.513-18.101 57.06-18.101 57.06s-18.102-25.547-18.102-57.06c0-31.512 18.102-57.058 18.102-57.058s18.101 25.546 18.101 57.058z"/><path opacity=".7" d="M155.152 118.317c15.756 27.289 12.853 58.463 12.853 58.463s-28.449-13.071-44.205-40.362c-15.756-27.29-12.853-58.464-12.853-58.464s28.449 13.072 44.205 40.363z"/><path opacity=".7" d="M127.64 132.574c27.29 15.756 40.363 44.204 40.363 44.204s-31.175 2.904-58.465-12.853-40.362-44.205-40.362-44.205 31.174-2.903 58.464 12.854z"/><path opacity=".7" d="M110.941 158.677c31.513 0 57.059 18.101 57.059 18.101s-25.546 18.103-57.059 18.102c-31.513 0-57.058-18.102-57.058-18.102s25.546-18.101 57.058-18.101zm114.117 36.215c-31.513 0-57.058-18.102-57.058-18.102s25.546-18.101 57.058-18.101 57.059 18.101 57.059 18.101-25.548 18.102-57.059 18.102z"/><path opacity=".7" d="M226.467 163.937c-27.291 15.757-58.464 12.853-58.464 12.853s13.073-28.448 40.362-44.204c27.291-15.757 58.465-12.854 58.465-12.854s-13.072 28.449-40.363 44.205z"/><path opacity=".7" d="M212.21 136.425c-15.756 27.29-44.205 40.362-44.205 40.362s-2.902-31.174 12.854-58.464 44.205-40.363 44.205-40.363 2.902 31.174-12.854 58.465z"/></g></svg>