<svg xmlns="http://www.w3.org/2000/svg" xmlns:xlink="http://www.w3.org/1999/xlink" viewBox="0 0 1153.97 717.48"><defs><clipPath id="clip-path" transform="translate(148.72 192.88)"><rect width="960" height="278.02" fill="none"/></clipPath><clipPath id="clip-path-2" transform="translate(148.72 192.88)"><rect width="960" height="278.02" fill="none"/></clipPath></defs><title>wellcome</title><g style="isolation:isolate"><g id="Слой_1" data-name="Слой 1"><rect x="148.72" y="192.88" width="960" height="278.02" fill="#e8b455"/><g clip-path="url(#clip-path)"><path d="M745.65,247.32c2.75,9.67,31.79,9.89,64.86.49a203.08,203.08,0,0,0,19.78-6.71,203.12,203.12,0,0,0-11.08,17.71c-16.74,30-23.2,58.34-14.42,63.24s29.47-15.48,46.21-45.51a202.32,202.32,0,0,0,9.24-18.73,202.82,202.82,0,0,0,4.69,20.35c9.39,33.08,24.85,57.66,34.52,54.92s9.89-31.79.5-64.86a203,203,0,0,0-6.71-19.78,203.52,203.52,0,0,0,17.71,11.07c30,16.75,58.34,23.2,63.24,14.43s-15.48-29.47-45.51-46.22a203.58,203.58,0,0,0-18.73-9.24,203.6,203.6,0,0,0,20.35-4.69c33.08-9.39,57.66-24.85,54.92-34.52s-31.78-9.89-64.86-.5a203,203,0,0,0-19.78,6.71,202.49,202.49,0,0,0,11.07-17.71c16.75-30,23.21-58.35,14.43-63.24S896.61,120,879.86,150.06a203.31,203.31,0,0,0-9.24,18.73,202.07,202.07,0,0,0-4.69-20.35c-9.39-33.08-24.85-57.66-34.52-54.92s-9.89,31.79-.5,64.86a203.27,203.27,0,0,0,6.71,19.78,202.53,202.53,0,0,0-17.71-11.08c-30-16.75-58.34-23.2-63.24-14.43s15.48,29.47,45.51,46.22a202,202,0,0,0,18.73,9.24,202.78,202.78,0,0,0-20.35,4.69C767.49,222.2,742.91,237.65,745.65,247.32Z" transform="translate(148.72 192.88)" fill="#fff" opacity="0.2" style="mix-blend-mode:screen"/><path d="M-119.78,305.38c2.75,9.67,31.79,9.89,64.86.49a201.75,201.75,0,0,0,19.78-6.71,203.14,203.14,0,0,0-11.08,17.71c-16.74,30-23.2,58.34-14.42,63.24s29.47-15.48,46.21-45.51a202,202,0,0,0,9.24-18.73A203,203,0,0,0-.5,336.22C8.9,369.29,24.35,393.88,34,391.13s9.89-31.78.5-64.86a203.07,203.07,0,0,0-6.71-19.78,203.5,203.5,0,0,0,17.71,11.08c30,16.74,58.34,23.2,63.24,14.43s-15.48-29.47-45.51-46.22a203.06,203.06,0,0,0-18.73-9.24,202.11,202.11,0,0,0,20.35-4.69c33.08-9.39,57.66-24.85,54.92-34.52s-31.78-9.89-64.86-.5a203,203,0,0,0-19.78,6.71,202.5,202.5,0,0,0,11.07-17.71c16.75-30,23.21-58.34,14.43-63.24s-29.47,15.48-46.22,45.51a203.26,203.26,0,0,0-9.24,18.73A202.07,202.07,0,0,0,.5,206.49C-8.9,173.41-24.35,148.83-34,151.57s-9.89,31.79-.5,64.86a203.27,203.27,0,0,0,6.71,19.78,202.53,202.53,0,0,0-17.71-11.08c-30-16.75-58.34-23.2-63.24-14.43s15.48,29.47,45.51,46.22a202.65,202.65,0,0,0,18.73,9.24,202.07,202.07,0,0,0-20.35,4.69C-97.94,280.25-122.53,295.71-119.78,305.38Z" transform="translate(148.72 192.88)" fill="#fff" opacity="0.2" style="mix-blend-mode:screen"/><path d="M692.44,116.69c-1.32,6.47,15.56,15.38,37.7,19.9a133.3,133.3,0,0,0,13.57,2.06,133.53,133.53,0,0,0-11.82,7c-18.85,12.46-31.18,27-27.53,32.54s21.88-.13,40.73-12.59a132.9,132.9,0,0,0,11.05-8.14,132.85,132.85,0,0,0-3.41,13.3c-4.52,22.14-2.93,41.16,3.54,42.48s15.38-15.56,19.89-37.7A133.33,133.33,0,0,0,778.23,162a133.15,133.15,0,0,0,7,11.82c12.46,18.85,27,31.18,32.54,27.53s-0.13-21.88-12.59-40.73A133.46,133.46,0,0,0,797,149.52a133.5,133.5,0,0,0,13.3,3.42c22.14,4.52,41.16,2.93,42.48-3.54S837.25,134,815.1,129.5a132.93,132.93,0,0,0-13.57-2.06,133.31,133.31,0,0,0,11.81-7c18.85-12.46,31.18-27,27.54-32.54S819,88,800.16,100.5a133.17,133.17,0,0,0-11.05,8.14,133.69,133.69,0,0,0,3.42-13.29C797,73.2,795.45,54.18,789,52.86s-15.38,15.56-19.9,37.7A132.5,132.5,0,0,0,767,104.13a134,134,0,0,0-7-11.82c-12.46-18.85-27-31.18-32.54-27.53s0.13,21.88,12.59,40.73a133.46,133.46,0,0,0,8.14,11.06,133.16,133.16,0,0,0-13.3-3.42C712.78,108.63,693.76,110.22,692.44,116.69Z" transform="translate(148.72 192.88)" fill="#fff" opacity="0.2" style="mix-blend-mode:screen"/><path d="M794.07,58.45c-0.81,4.75,11.7,10.84,27.94,13.6a97,97,0,0,0,9.94,1.18,97.58,97.58,0,0,0-8.44,5.37C810.06,88.13,801.43,99,804.21,103s15.94-.61,29.38-10.14a97.52,97.52,0,0,0,7.86-6.19,97.17,97.17,0,0,0-2.17,9.77c-2.77,16.24-1.16,30.06,3.59,30.87s10.84-11.7,13.6-27.94a97,97,0,0,0,1.18-9.94A97.47,97.47,0,0,0,863,97.84c9.53,13.44,20.44,22.08,24.36,19.29s-0.61-15.94-10.14-29.38a97.12,97.12,0,0,0-6.19-7.86,97.43,97.43,0,0,0,9.77,2.17c16.24,2.77,30.06,1.16,30.87-3.59S900,67.65,883.75,64.88a97.28,97.28,0,0,0-9.94-1.18,96.55,96.55,0,0,0,8.44-5.37C895.7,48.8,904.33,37.9,901.55,34s-15.93.61-29.38,10.14a97.28,97.28,0,0,0-7.86,6.19,97.8,97.8,0,0,0,2.17-9.77c2.76-16.24,1.16-30.06-3.59-30.87s-10.84,11.7-13.6,27.94a97.82,97.82,0,0,0-1.18,9.94,97.33,97.33,0,0,0-5.37-8.44C833.22,25.65,822.31,17,818.38,19.8S819,35.74,828.52,49.18A97.52,97.52,0,0,0,834.71,57a97,97,0,0,0-9.77-2.17C808.7,52.1,794.88,53.7,794.07,58.45Z" transform="translate(148.72 192.88)" fill="#fff" opacity="0.2" style="mix-blend-mode:screen"/><path d="M-46.81,42.4c-1.32,6.47,15.56,15.38,37.7,19.89A133.22,133.22,0,0,0,4.46,64.36a132.82,132.82,0,0,0-11.82,7c-18.85,12.46-31.18,27-27.53,32.54S-13,103.76,5.84,91.3a132.73,132.73,0,0,0,11.05-8.14,134.24,134.24,0,0,0-3.41,13.3C9,118.6,10.55,137.62,17,138.94s15.38-15.56,19.9-37.7A133.23,133.23,0,0,0,39,87.67a133,133,0,0,0,7,11.82C58.43,118.33,73,130.66,78.51,127s-0.13-21.88-12.59-40.73a132.88,132.88,0,0,0-8.14-11.05,133.68,133.68,0,0,0,13.3,3.42c22.14,4.52,41.16,2.93,42.48-3.54S98,59.73,75.86,55.21a133,133,0,0,0-13.57-2.06,133.71,133.71,0,0,0,11.82-7c18.85-12.46,31.18-27,27.53-32.54s-21.88.13-40.73,12.59a133.88,133.88,0,0,0-11.05,8.14,132.19,132.19,0,0,0,3.42-13.29c4.52-22.14,2.93-41.16-3.54-42.48S34.35-5.87,29.83,16.27a134,134,0,0,0-2.06,13.57,132.76,132.76,0,0,0-7-11.82C8.32-.83-6.25-13.15-11.76-9.51S-11.63,12.37.83,31.22A133.45,133.45,0,0,0,9,42.27a133.31,133.31,0,0,0-13.3-3.42C-26.47,34.34-45.49,35.93-46.81,42.4Z" transform="translate(148.72 192.88)" fill="#fff" opacity="0.2" style="mix-blend-mode:screen"/><path d="M54.83-15.84C54-11.09,66.53-5,82.77-2.24A96.66,96.66,0,0,0,92.7-1.06a97.61,97.61,0,0,0-8.44,5.37C70.82,13.84,62.18,24.75,65,28.68s15.93-.61,29.37-10.14a97.12,97.12,0,0,0,7.86-6.19A97,97,0,0,0,100,22.12C97.26,38.36,98.87,52.18,103.62,53s10.84-11.7,13.6-27.94a97.06,97.06,0,0,0,1.18-9.94,97.26,97.26,0,0,0,5.37,8.44C133.3,37,144.21,45.63,148.13,42.84S147.52,26.91,138,13.47a97.08,97.08,0,0,0-6.19-7.86,97,97,0,0,0,9.77,2.17c16.24,2.77,30.06,1.16,30.87-3.59S160.74-6.64,144.5-9.41a97.08,97.08,0,0,0-9.94-1.18A97.64,97.64,0,0,0,143-16c13.44-9.53,22.07-20.44,19.29-24.36s-15.94.61-29.38,10.14A97.36,97.36,0,0,0,125.06-24a96.92,96.92,0,0,0,2.17-9.77C130-50,128.4-63.82,123.65-64.63S112.81-52.93,110-36.69a97.14,97.14,0,0,0-1.18,9.94,97.12,97.12,0,0,0-5.37-8.44C94-48.64,83.06-57.27,79.14-54.49s0.61,15.94,10.14,29.38a96.9,96.9,0,0,0,6.19,7.86,96.9,96.9,0,0,0-9.77-2.17C69.45-22.19,55.63-20.59,54.83-15.84Z" transform="translate(148.72 192.88)" fill="#fff" opacity="0.2" style="mix-blend-mode:screen"/></g><g clip-path="url(#clip-path-2)"><circle cx="1051.54" cy="456.01" r="102.42" fill="#fff" opacity="0.1" style="mix-blend-mode:screen"/><circle cx="944.09" cy="170.37" r="170.37" fill="#fff" opacity="0.1" style="mix-blend-mode:screen"/><circle cx="170.37" cy="397.39" r="170.37" fill="#fff" opacity="0.1" style="mix-blend-mode:screen"/><circle cx="818.35" cy="547.1" r="170.37" fill="#fff" opacity="0.1" style="mix-blend-mode:screen"/><circle cx="857.73" cy="289.16" r="59.13" fill="#fff" opacity="0.2" style="mix-blend-mode:screen"/><circle cx="1081.31" cy="220.2" r="16.48" fill="#fff" opacity="0.1" style="mix-blend-mode:screen"/><circle cx="295.68" cy="426.18" r="61.6" fill="#fff" opacity="0.2" style="mix-blend-mode:screen"/><circle cx="266.83" cy="199.12" r="108.53" fill="#fff" opacity="0.2" style="mix-blend-mode:screen"/><circle cx="350.66" cy="307.65" r="14.04" fill="#fff" opacity="0.1" style="mix-blend-mode:screen"/><circle cx="641.7" cy="479.87" r="44.69" fill="#fff" opacity="0.1" style="mix-blend-mode:screen"/><circle cx="537.32" cy="446.28" r="16.01" fill="#fff" opacity="0.2" style="mix-blend-mode:screen"/></g></g></g></svg>