<svg xmlns="http://www.w3.org/2000/svg" viewBox="0 0 1153.97 717.48"><defs><clipPath id="a" transform="translate(148.72 192.88)"><path fill="none" d="M0 0h960v278.02H0z"/></clipPath><clipPath id="b" transform="translate(148.72 192.88)"><path fill="none" d="M0 0h960v278.02H0z"/></clipPath></defs><title>wellcome</title><g data-name="Слой 1" style="isolation:isolate"><path fill="#e8b455" d="M148.72 192.88h960V470.9h-960z"/><g clip-path="url(#a)" fill="#fff"><path d="M894.37 440.2c2.75 9.67 31.79 9.89 64.86.49a203.08 203.08 0 0 0 19.78-6.71 203.12 203.12 0 0 0-11.08 17.71c-16.74 30-23.2 58.34-14.42 63.24s29.47-15.48 46.21-45.51a202.32 202.32 0 0 0 9.24-18.73 202.82 202.82 0 0 0 4.69 20.35c9.39 33.08 24.85 57.66 34.52 54.92s9.89-31.79.5-64.86a203 203 0 0 0-6.71-19.78 203.52 203.52 0 0 0 17.71 11.07c30 16.75 58.34 23.2 63.24 14.43s-15.48-29.47-45.51-46.22a203.58 203.58 0 0 0-18.73-9.24 203.6 203.6 0 0 0 20.35-4.69c33.08-9.39 57.66-24.85 54.92-34.52s-31.78-9.89-64.86-.5a203 203 0 0 0-19.78 6.71 202.49 202.49 0 0 0 11.07-17.71c16.75-30 23.21-58.35 14.43-63.24s-29.47 15.47-46.22 45.53a203.31 203.31 0 0 0-9.24 18.73 202.07 202.07 0 0 0-4.69-20.35c-9.39-33.08-24.85-57.66-34.52-54.92s-9.89 31.79-.5 64.86a203.27 203.27 0 0 0 6.71 19.78 202.53 202.53 0 0 0-17.71-11.08c-30-16.75-58.34-23.2-63.24-14.43s15.48 29.47 45.51 46.22a202 202 0 0 0 18.73 9.24 202.78 202.78 0 0 0-20.35 4.69c-33.07 9.4-57.65 24.85-54.91 34.52zM28.94 498.26c2.75 9.67 31.79 9.89 64.86.49a201.75 201.75 0 0 0 19.78-6.71 203.14 203.14 0 0 0-11.08 17.71c-16.74 30-23.2 58.34-14.42 63.24s29.47-15.48 46.21-45.51a202 202 0 0 0 9.24-18.73 203 203 0 0 0 4.69 20.35c9.4 33.07 24.85 57.66 34.5 54.91s9.89-31.78.5-64.86a203.07 203.07 0 0 0-6.71-19.78 203.5 203.5 0 0 0 17.71 11.08c30 16.74 58.34 23.2 63.24 14.43s-15.48-29.47-45.51-46.22a203.06 203.06 0 0 0-18.73-9.24 202.11 202.11 0 0 0 20.35-4.69c33.08-9.39 57.66-24.85 54.92-34.52s-31.78-9.89-64.86-.5a203 203 0 0 0-19.78 6.71 202.5 202.5 0 0 0 11.07-17.71c16.75-30 23.21-58.34 14.43-63.24s-29.47 15.48-46.22 45.51a203.26 203.26 0 0 0-9.24 18.73 202.07 202.07 0 0 0-4.67-20.34c-9.4-33.08-24.85-57.66-34.5-54.92s-9.89 31.79-.5 64.86a203.27 203.27 0 0 0 6.71 19.78 202.53 202.53 0 0 0-17.71-11.08c-30-16.75-58.34-23.2-63.24-14.43s15.48 29.47 45.51 46.22a202.65 202.65 0 0 0 18.73 9.24 202.07 202.07 0 0 0-20.35 4.69c-33.09 9.4-57.68 24.86-54.93 34.53z" opacity=".2" style="mix-blend-mode:screen"/><path d="M841.16 309.57c-1.32 6.47 15.56 15.38 37.7 19.9a133.3 133.3 0 0 0 13.57 2.06 133.53 133.53 0 0 0-11.82 7c-18.85 12.46-31.18 27-27.53 32.54s21.88-.13 40.73-12.59a132.9 132.9 0 0 0 11.05-8.14 132.85 132.85 0 0 0-3.41 13.3c-4.52 22.14-2.93 41.16 3.54 42.48s15.38-15.56 19.89-37.7a133.33 133.33 0 0 0 2.07-13.54 133.15 133.15 0 0 0 7 11.82c12.46 18.85 27 31.18 32.54 27.53s-.13-21.88-12.59-40.73a133.46 133.46 0 0 0-8.18-11.1 133.5 133.5 0 0 0 13.3 3.42c22.14 4.52 41.16 2.93 42.48-3.54s-15.53-15.4-37.68-19.9a132.93 132.93 0 0 0-13.57-2.06 133.31 133.31 0 0 0 11.81-7c18.85-12.46 31.18-27 27.54-32.54s-21.88.1-40.72 12.6a133.17 133.17 0 0 0-11.05 8.14 133.69 133.69 0 0 0 3.42-13.29c4.47-22.15 2.92-41.17-3.53-42.49s-15.38 15.56-19.9 37.7a132.5 132.5 0 0 0-2.1 13.57 134 134 0 0 0-7-11.82c-12.46-18.85-27-31.18-32.54-27.53s.13 21.88 12.59 40.73a133.46 133.46 0 0 0 8.14 11.06 133.16 133.16 0 0 0-13.3-3.42c-22.11-4.52-41.13-2.93-42.45 3.54z" opacity=".2" style="mix-blend-mode:screen"/><path d="M942.79 251.33c-.81 4.75 11.7 10.84 27.94 13.6a97 97 0 0 0 9.94 1.18 97.58 97.58 0 0 0-8.44 5.37c-13.45 9.53-22.08 20.4-19.3 24.4s15.94-.61 29.38-10.14a97.52 97.52 0 0 0 7.86-6.19 97.17 97.17 0 0 0-2.17 9.77c-2.77 16.24-1.16 30.06 3.59 30.87s10.84-11.7 13.6-27.94a97 97 0 0 0 1.18-9.94 97.47 97.47 0 0 0 5.35 8.41c9.53 13.44 20.44 22.08 24.36 19.29s-.61-15.94-10.14-29.38a97.12 97.12 0 0 0-6.19-7.86 97.43 97.43 0 0 0 9.77 2.17c16.24 2.77 30.06 1.16 30.87-3.59s-11.67-10.82-27.92-13.59a97.28 97.28 0 0 0-9.94-1.18 96.55 96.55 0 0 0 8.44-5.37c13.45-9.53 22.08-20.43 19.3-24.33s-15.93.61-29.38 10.14a97.28 97.28 0 0 0-7.86 6.19 97.8 97.8 0 0 0 2.17-9.77c2.76-16.24 1.16-30.06-3.59-30.87s-10.84 11.7-13.6 27.94a97.82 97.82 0 0 0-1.18 9.94 97.33 97.33 0 0 0-5.37-8.44c-9.52-13.48-20.43-22.13-24.36-19.33s.62 15.94 10.14 29.38a97.52 97.52 0 0 0 6.19 7.82 97 97 0 0 0-9.77-2.17c-16.24-2.73-30.06-1.13-30.87 3.62zm-840.88-16.05c-1.32 6.47 15.56 15.38 37.7 19.89a133.22 133.22 0 0 0 13.57 2.07 132.82 132.82 0 0 0-11.82 7c-18.85 12.46-31.18 27-27.53 32.54s21.89-.14 40.73-12.6a132.73 132.73 0 0 0 11.05-8.14 134.24 134.24 0 0 0-3.41 13.3c-4.48 22.14-2.93 41.16 3.52 42.48s15.38-15.56 19.9-37.7a133.23 133.23 0 0 0 2.1-13.57 133 133 0 0 0 7 11.82c12.43 18.84 27 31.17 32.51 27.51s-.13-21.88-12.59-40.73a132.88 132.88 0 0 0-8.14-11.05 133.68 133.68 0 0 0 13.3 3.42c22.14 4.52 41.16 2.93 42.48-3.54s-15.56-15.37-37.7-19.89a133 133 0 0 0-13.57-2.06 133.71 133.71 0 0 0 11.82-7c18.85-12.46 31.18-27 27.53-32.54s-21.88.13-40.73 12.59a133.88 133.88 0 0 0-11.05 8.14 132.19 132.19 0 0 0 3.42-13.29c4.52-22.14 2.93-41.16-3.54-42.48s-15.39 15.56-19.91 37.7a134 134 0 0 0-2.06 13.57 132.76 132.76 0 0 0-7-11.82c-12.45-18.85-27.02-31.17-32.53-27.53s.13 21.88 12.59 40.73a133.45 133.45 0 0 0 8.17 11.05 133.31 133.31 0 0 0-13.3-3.42c-22.17-4.51-41.19-2.92-42.51 3.55z" opacity=".2" style="mix-blend-mode:screen"/><path d="M203.55 177.04c-.83 4.75 11.7 10.84 27.94 13.6a96.66 96.66 0 0 0 9.93 1.18 97.61 97.61 0 0 0-8.44 5.37c-13.44 9.53-22.08 20.44-19.26 24.37s15.93-.61 29.37-10.14a97.12 97.12 0 0 0 7.86-6.19 97 97 0 0 0-2.23 9.77c-2.74 16.24-1.13 30.06 3.62 30.88s10.84-11.7 13.6-27.94a97.06 97.06 0 0 0 1.18-9.94 97.26 97.26 0 0 0 5.37 8.44c9.53 13.44 20.44 22.07 24.36 19.28s-.61-15.93-10.13-29.37a97.08 97.08 0 0 0-6.19-7.86 97 97 0 0 0 9.77 2.17c16.24 2.77 30.06 1.16 30.87-3.59s-11.71-10.83-27.95-13.6a97.08 97.08 0 0 0-9.94-1.18 97.64 97.64 0 0 0 8.44-5.41c13.44-9.53 22.07-20.44 19.29-24.36s-15.94.61-29.38 10.14a97.36 97.36 0 0 0-7.85 6.22 96.92 96.92 0 0 0 2.17-9.77c2.77-16.23 1.17-30.05-3.58-30.86s-10.84 11.7-13.65 27.94a97.14 97.14 0 0 0-1.18 9.94 97.12 97.12 0 0 0-5.37-8.44c-9.45-13.45-20.39-22.08-24.31-19.3s.61 15.94 10.14 29.38a96.9 96.9 0 0 0 6.19 7.86 96.9 96.9 0 0 0-9.77-2.17c-16.25-2.77-30.07-1.17-30.87 3.58z" opacity=".2" style="mix-blend-mode:screen"/></g><g clip-path="url(#b)" fill="#fff"><circle cx="1051.54" cy="456.01" r="102.42" opacity=".1" style="mix-blend-mode:screen"/><circle cx="944.09" cy="170.37" r="170.37" opacity=".1" style="mix-blend-mode:screen"/><circle cx="170.37" cy="397.39" r="170.37" opacity=".1" style="mix-blend-mode:screen"/><circle cx="818.35" cy="547.1" r="170.37" opacity=".1" style="mix-blend-mode:screen"/><circle cx="857.73" cy="289.16" r="59.13" opacity=".2" style="mix-blend-mode:screen"/><circle cx="1081.31" cy="220.2" r="16.48" opacity=".1" style="mix-blend-mode:screen"/><circle cx="295.68" cy="426.18" r="61.6" opacity=".2" style="mix-blend-mode:screen"/><circle cx="266.83" cy="199.12" r="108.53" opacity=".2" style="mix-blend-mode:screen"/><circle cx="350.66" cy="307.65" r="14.04" opacity=".1" style="mix-blend-mode:screen"/><circle cx="641.7" cy="479.87" r="44.69" opacity=".1" style="mix-blend-mode:screen"/><circle cx="537.32" cy="446.28" r="16.01" opacity=".2" style="mix-blend-mode:screen"/></g></g></svg>